<svg xmlns="http://www.w3.org/2000/svg" viewBox="0 0 1000 482.7"><defs><style>.a{fill:#000;}.b{fill:#fff;}</style></defs><rect class="a" width="482.7" height="482.67"/><rect class="a" x="517.3" width="482.7" height="482.67"/><path class="b" d="M368.5,311c0,43-35,78.5-82.7,78.5H148.1V91.4H284.9c46,0,83.6,36.7,83.6,81.1Zm-80.6,31.2c18.1,0,30.8-10.6,30.8-28.7V169.9c0-17.3-13.1-31.2-31.3-31.2H196.7V342.2Z"/><path class="b" d="M788.8,366.6c-13.5,15.2-21.5,22-39.7,22s-26.6-6.8-40.1-22l-48.2-50.7c-13.9-15.2-20.3-28.7-20.3-54.5V104.2c0-14,12.3-21.6,25.4-21.6s24.9,7.6,24.9,21.6V259.3c0,13.5,1.3,19,7.6,25.3,16.9,18.2,33.8,35.9,51.2,54.1,16.4-18.2,32.9-35.5,50.2-54.1,6.4-6.3,7.6-11.8,7.6-25.3V104.2c0-14,11.5-21.6,25.4-21.6s24.5,7.6,24.5,21.6V261.4c0,25.8-6.3,39.3-20.3,54.5Z"/></svg>
